<svg width="614" height="260" viewBox="0 0 614 260" fill="none" xmlns="http://www.w3.org/2000/svg">
<g clip-path="url(#clip0_189_951)">
<path d="M0 129.77H611.41" stroke="#0A169A" stroke-miterlimit="10"/>
<path d="M605.06 137.62L603.75 136.21L610.67 129.77L603.75 123.33L605.06 121.93L613.49 129.77L605.06 137.62Z" fill="#0A169A"/>
<path d="M305.87 187.24C377.402 187.24 435.39 161.51 435.39 129.77C435.39 98.03 377.402 72.2998 305.87 72.2998C234.338 72.2998 176.35 98.03 176.35 129.77C176.35 161.51 234.338 187.24 305.87 187.24Z" stroke="#0A169A" stroke-width="0.5" stroke-miterlimit="10"/>
<path d="M305.87 197.38C377.402 197.38 435.39 167.11 435.39 129.77C435.39 92.4302 377.402 62.1602 305.87 62.1602C234.338 62.1602 176.35 92.4302 176.35 129.77C176.35 167.11 234.338 197.38 305.87 197.38Z" stroke="#0A169A" stroke-width="0.5" stroke-miterlimit="10"/>
<path d="M305.87 209.31C377.402 209.31 435.39 173.699 435.39 129.77C435.39 85.8413 377.402 50.23 305.87 50.23C234.338 50.23 176.35 85.8413 176.35 129.77C176.35 173.699 234.338 209.31 305.87 209.31Z" stroke="#0A169A" stroke-width="0.5" stroke-miterlimit="10"/>
<path d="M305.87 223.35C377.402 223.35 435.39 181.453 435.39 129.77C435.39 78.0871 377.402 36.1899 305.87 36.1899C234.338 36.1899 176.35 78.0871 176.35 129.77C176.35 181.453 234.338 223.35 305.87 223.35Z" stroke="#0A169A" stroke-width="0.5" stroke-miterlimit="10"/>
<path d="M305.87 239.86C377.402 239.86 435.39 190.571 435.39 129.77C435.39 68.9692 377.402 19.6802 305.87 19.6802C234.338 19.6802 176.35 68.9692 176.35 129.77C176.35 190.571 234.338 239.86 305.87 239.86Z" stroke="#0A169A" stroke-width="0.5" stroke-miterlimit="10"/>
<path d="M305.87 259.29C377.402 259.29 435.39 201.302 435.39 129.77C435.39 58.2381 377.402 0.25 305.87 0.25C234.338 0.25 176.35 58.2381 176.35 129.77C176.35 201.302 234.338 259.29 305.87 259.29Z" stroke="#0A169A" stroke-width="0.5" stroke-miterlimit="10"/>
</g>
<defs>
<clipPath id="clip0_189_951">
<rect width="613.49" height="259.54" fill="white"/>
</clipPath>
</defs>
</svg>
