<svg width="849" height="497" viewBox="0 0 849 497" fill="none" xmlns="http://www.w3.org/2000/svg">
<path d="M468.735 250.817C469.003 249.087 460.978 246.591 450.81 245.243C440.643 243.895 432.183 244.205 431.914 245.935C431.646 247.665 439.671 250.16 449.839 251.508C460.006 252.857 468.466 252.547 468.735 250.817Z" stroke="#252930" stroke-width="1.41" stroke-miterlimit="10"/>
<path d="M450.706 252.35C462.53 251.297 471.931 248.673 471.704 246.489C471.476 244.305 461.707 243.387 449.882 244.44C438.058 245.493 428.657 248.117 428.884 250.301C429.112 252.486 438.882 253.403 450.706 252.35Z" stroke="#252930" stroke-width="1.41" stroke-miterlimit="10"/>
<path d="M452.343 253.282C464.515 248.926 473.467 243.209 472.339 240.515C471.211 237.82 460.43 239.167 448.258 243.523C436.086 247.88 427.134 253.596 428.262 256.291C429.39 258.986 440.171 257.639 452.343 253.282Z" stroke="#252930" stroke-width="1.41" stroke-miterlimit="10"/>
<path d="M455.368 253.735C465.851 245.284 472.082 236.029 469.285 233.062C466.488 230.096 455.723 234.541 445.24 242.991C434.757 251.441 428.526 260.697 431.323 263.663C434.12 266.63 444.885 262.185 455.368 253.735Z" stroke="#252930" stroke-width="1.41" stroke-miterlimit="10"/>
<path d="M459.737 251.978C465.561 238.957 466.071 226.791 460.875 224.804C455.68 222.817 446.747 231.762 440.923 244.783C435.099 257.804 434.589 269.97 439.784 271.957C444.98 273.944 453.913 264.999 459.737 251.978Z" stroke="#252930" stroke-width="1.41" stroke-miterlimit="10"/>
<path d="M454.672 279.211C461.293 278.411 464.709 263.94 462.3 246.887C459.892 229.834 452.572 216.659 445.951 217.458C439.33 218.258 435.914 232.73 438.322 249.782C440.731 266.835 448.05 280.011 454.672 279.211Z" stroke="#252930" stroke-width="1.41" stroke-miterlimit="10"/>
<path d="M474.481 283.658C480.575 280.086 474.692 261.402 461.341 241.926C447.99 222.449 432.226 209.557 426.132 213.129C420.038 216.701 425.92 235.385 439.272 254.862C452.623 274.338 468.386 287.231 474.481 283.658Z" stroke="#252930" stroke-width="1.41" stroke-miterlimit="10"/>
<path d="M497.944 283.903C502.79 278.347 485.395 257.938 459.091 238.319C432.786 218.699 407.534 207.298 402.687 212.854C397.841 218.41 415.236 238.819 441.54 258.438C467.845 278.058 493.097 289.458 497.944 283.903Z" stroke="#252930" stroke-width="1.41" stroke-miterlimit="10"/>
<path d="M523.351 278.207C526.814 270.961 496.915 251.722 456.571 235.237C416.226 218.752 380.713 211.263 377.25 218.509C373.787 225.756 403.686 244.994 444.03 261.479C484.375 277.964 519.888 285.454 523.351 278.207Z" stroke="#252930" stroke-width="1.41" stroke-miterlimit="10"/>
<path d="M547.438 264.8C549.246 255.671 507.207 240.902 453.541 231.812C399.875 222.722 354.904 222.754 353.096 231.883C351.288 241.012 393.326 255.782 446.992 264.872C500.658 273.962 545.629 273.93 547.438 264.8Z" stroke="#252930" stroke-width="1.41" stroke-miterlimit="10"/>
<path d="M451.513 269.221C515.139 266.024 566.17 254.113 565.495 242.616C564.819 231.119 512.693 224.391 449.066 227.587C385.44 230.784 334.409 242.695 335.084 254.192C335.76 265.689 387.887 272.417 451.513 269.221Z" stroke="#252930" stroke-width="1.41" stroke-miterlimit="10"/>
<path d="M459.569 274.282C526.557 253.797 576.712 225.589 571.594 211.278C566.476 196.967 508.022 201.973 441.034 222.458C374.047 242.944 323.891 271.152 329.01 285.463C334.128 299.774 392.582 294.768 459.569 274.282Z" stroke="#252930" stroke-width="1.41" stroke-miterlimit="10"/>
<path d="M474.579 277.817C534.521 235.577 572.25 188.153 558.849 171.892C545.448 155.632 485.992 176.692 426.049 218.932C366.107 261.172 328.378 308.597 341.779 324.857C355.18 341.118 414.636 320.057 474.579 277.817Z" stroke="#252930" stroke-width="1.41" stroke-miterlimit="10"/>
<path d="M497.85 271.142C535.422 204.061 544.602 139.49 518.354 126.92C492.106 114.349 440.37 158.54 402.798 225.621C365.226 292.703 356.047 357.273 382.295 369.844C408.543 382.414 460.279 338.224 497.85 271.142Z" stroke="#252930" stroke-width="1.41" stroke-miterlimit="10"/>
<path d="M458.225 411.712C494.026 410.226 519.499 335.904 515.121 245.709C510.743 155.514 478.172 83.6011 442.371 85.087C406.57 86.5729 381.097 160.895 385.475 251.09C389.853 341.285 422.425 413.198 458.225 411.712Z" stroke="#252930" stroke-width="1.41" stroke-miterlimit="10"/>
<path d="M562.903 438.753C597.227 421.398 574.643 322.081 512.459 216.924C450.275 111.767 372.04 40.5887 337.716 57.9438C303.392 75.2989 325.977 174.615 388.16 279.772C450.344 384.93 528.579 456.108 562.903 438.753Z" stroke="#252930" stroke-width="1.41" stroke-miterlimit="10"/>
<path d="M688.359 444.641C716.119 415.85 632.047 304.644 500.579 196.255C369.111 87.8665 240.03 23.3397 212.27 52.1306C184.509 80.9215 268.581 192.128 400.05 300.516C531.518 408.905 660.598 473.432 688.359 444.641Z" stroke="#252930" stroke-width="1.41" stroke-miterlimit="10"/>
<path d="M77.8643 72.0597C114.424 41.5103 310.825 95.6792 516.507 193.045C722.201 290.422 859.31 394.116 822.737 424.677C786.178 455.227 589.776 401.058 384.095 303.692C178.401 206.315 41.292 102.609 77.8643 72.0597Z" stroke="#252930" stroke-width="1.41" stroke-miterlimit="10"/>
<path d="M6.28101 58.9276C93.0403 67.9943 307.403 126.171 471.866 196.383C696.595 292.327 853.164 394.578 821.576 424.77" stroke="#252930" stroke-width="1.41" stroke-miterlimit="10"/>
<path d="M5.81883 65.1181C2.19657 64.7255 -0.388969 61.6878 0.0481993 58.3384C0.485368 54.9889 3.75789 52.5981 7.38014 53.0023C11.0024 53.395 13.5879 56.4326 13.1508 59.7821C12.7136 63.1316 9.44108 65.5224 5.81883 65.1181Z" fill="#252930"/>
<path d="M463.785 247.606L844.184 189.083" stroke="#252930" stroke-width="1.08" stroke-miterlimit="10"/>
<path d="M844.77 193.737C847.531 193.31 849.392 190.896 848.93 188.344C848.467 185.791 845.857 184.07 843.096 184.498C840.336 184.925 838.475 187.339 838.937 189.891C839.399 192.444 842.01 194.165 844.77 193.737Z" fill="#252930"/>
</svg>
