<svg width="1053" height="163" viewBox="0 0 1053 163" fill="none" xmlns="http://www.w3.org/2000/svg">
<g clip-path="url(#clip0_189_882)">
<path d="M211.52 161.6C328.085 161.6 422.58 125.528 422.58 81.03C422.58 36.5324 328.085 0.459961 211.52 0.459961C94.9547 0.459961 0.459961 36.5324 0.459961 81.03C0.459961 125.528 94.9547 161.6 211.52 161.6Z" stroke="#73C7E4" stroke-width="0.92" stroke-miterlimit="10"/>
<path d="M212.35 161.6C329.374 161.6 424.24 125.528 424.24 81.03C424.24 36.5324 329.374 0.459961 212.35 0.459961C95.3263 0.459961 0.459961 36.5324 0.459961 81.03C0.459961 125.528 95.3263 161.6 212.35 161.6Z" stroke="#73C7E4" stroke-width="0.92" stroke-miterlimit="10"/>
<path d="M212.35 161.6C329.374 161.6 424.24 125.528 424.24 81.03C424.24 36.5324 329.374 0.459961 212.35 0.459961C95.3263 0.459961 0.459961 36.5324 0.459961 81.03C0.459961 125.528 95.3263 161.6 212.35 161.6Z" stroke="#73C7E4" stroke-width="0.92" stroke-miterlimit="10"/>
<path d="M214.85 161.6C333.254 161.6 429.24 125.528 429.24 81.03C429.24 36.5324 333.254 0.459961 214.85 0.459961C96.4456 0.459961 0.459961 36.5324 0.459961 81.03C0.459961 125.528 96.4456 161.6 214.85 161.6Z" stroke="#73C7E4" stroke-width="0.92" stroke-miterlimit="10"/>
<path d="M224.82 161.6C348.731 161.6 449.18 125.528 449.18 81.03C449.18 36.5324 348.731 0.459961 224.82 0.459961C100.909 0.459961 0.459961 36.5324 0.459961 81.03C0.459961 125.528 100.909 161.6 224.82 161.6Z" stroke="#73C7E4" stroke-width="0.92" stroke-miterlimit="10"/>
<path d="M246.42 156.78C382.26 156.78 492.38 121.787 492.38 78.62C492.38 35.4534 382.26 0.459961 246.42 0.459961C110.58 0.459961 0.459961 35.4534 0.459961 78.62C0.459961 121.787 110.58 156.78 246.42 156.78Z" stroke="#73C7E4" stroke-width="0.92" stroke-miterlimit="10"/>
<path d="M284.65 151.98C441.598 151.98 568.83 118.061 568.83 76.22C568.83 34.3789 441.598 0.459961 284.65 0.459961C127.702 0.459961 0.469971 34.3789 0.469971 76.22C0.469971 118.061 127.702 151.98 284.65 151.98Z" stroke="#73C7E4" stroke-width="0.92" stroke-miterlimit="10"/>
<path d="M322.04 147.16C499.644 147.16 643.62 114.32 643.62 73.81C643.62 33.2999 499.644 0.459961 322.04 0.459961C144.436 0.459961 0.459961 33.2999 0.459961 73.81C0.459961 114.32 144.436 147.16 322.04 147.16Z" stroke="#73C7E4" stroke-width="0.92" stroke-miterlimit="10"/>
<path d="M354.45 142.36C549.948 142.36 708.43 110.595 708.43 71.41C708.43 32.2254 549.948 0.459961 354.45 0.459961C158.952 0.459961 0.469971 32.2254 0.469971 71.41C0.469971 110.595 158.952 142.36 354.45 142.36Z" stroke="#73C7E4" stroke-width="0.92" stroke-miterlimit="10"/>
<path d="M383.53 139.96C595.094 139.96 766.6 108.732 766.6 70.21C766.6 31.6881 595.094 0.459961 383.53 0.459961C171.966 0.459961 0.459961 31.6881 0.459961 70.21C0.459961 108.732 171.966 139.96 383.53 139.96Z" stroke="#73C7E4" stroke-width="0.92" stroke-miterlimit="10"/>
<path d="M408.46 139.96C633.792 139.96 816.46 108.732 816.46 70.21C816.46 31.6881 633.792 0.459961 408.46 0.459961C183.128 0.459961 0.459961 31.6881 0.459961 70.21C0.459961 108.732 183.128 139.96 408.46 139.96Z" stroke="#73C7E4" stroke-width="0.92" stroke-miterlimit="10"/>
<path d="M425.91 139.96C660.88 139.96 851.36 108.732 851.36 70.21C851.36 31.6881 660.88 0.459961 425.91 0.459961C190.94 0.459961 0.459961 31.6881 0.459961 70.21C0.459961 108.732 190.94 139.96 425.91 139.96Z" stroke="#73C7E4" stroke-width="0.92" stroke-miterlimit="10"/>
<path d="M438.37 139.96C680.221 139.96 876.28 108.732 876.28 70.21C876.28 31.6881 680.221 0.459961 438.37 0.459961C196.519 0.459961 0.459961 31.6881 0.459961 70.21C0.459961 108.732 196.519 139.96 438.37 139.96Z" stroke="#73C7E4" stroke-width="0.92" stroke-miterlimit="10"/>
<path d="M446.68 139.96C693.12 139.96 892.9 108.732 892.9 70.21C892.9 31.6881 693.12 0.459961 446.68 0.459961C200.239 0.459961 0.459961 31.6881 0.459961 70.21C0.459961 108.732 200.239 139.96 446.68 139.96Z" stroke="#73C7E4" stroke-width="0.92" stroke-miterlimit="10"/>
<path d="M450.01 139.96C698.284 139.96 899.55 108.732 899.55 70.21C899.55 31.6881 698.284 0.459961 450.01 0.459961C201.736 0.459961 0.469971 31.6881 0.469971 70.21C0.469971 108.732 201.736 139.96 450.01 139.96Z" stroke="#73C7E4" stroke-width="0.92" stroke-miterlimit="10"/>
<path d="M450.84 139.96C699.572 139.96 901.21 108.732 901.21 70.21C901.21 31.6881 699.572 0.459961 450.84 0.459961C202.107 0.459961 0.469971 31.6881 0.469971 70.21C0.469971 108.732 202.107 139.96 450.84 139.96Z" stroke="#73C7E4" stroke-width="0.92" stroke-miterlimit="10"/>
<path d="M452.5 139.96C702.155 139.96 904.54 108.732 904.54 70.21C904.54 31.6881 702.155 0.459961 452.5 0.459961C202.845 0.459961 0.459961 31.6881 0.459961 70.21C0.459961 108.732 202.845 139.96 452.5 139.96Z" stroke="#73C7E4" stroke-width="0.92" stroke-miterlimit="10"/>
<path d="M458.31 138.75C711.174 138.75 916.16 107.795 916.16 69.6102C916.16 31.4252 711.174 0.470215 458.31 0.470215C205.446 0.470215 0.459961 31.4252 0.459961 69.6102C0.459961 107.795 205.446 138.75 458.31 138.75Z" stroke="#73C7E4" stroke-width="0.92" stroke-miterlimit="10"/>
<path d="M469.12 136.34C727.954 136.34 937.78 105.922 937.78 68.4C937.78 30.8777 727.954 0.459961 469.12 0.459961C210.286 0.459961 0.459961 30.8777 0.459961 68.4C0.459961 105.922 210.286 136.34 469.12 136.34Z" stroke="#73C7E4" stroke-width="0.92" stroke-miterlimit="10"/>
<path d="M483.24 136.34C749.872 136.34 966.02 105.922 966.02 68.4C966.02 30.8777 749.872 0.459961 483.24 0.459961C216.608 0.459961 0.459961 30.8777 0.459961 68.4C0.459961 105.922 216.608 136.34 483.24 136.34Z" stroke="#73C7E4" stroke-width="0.92" stroke-miterlimit="10"/>
<path d="M495.71 136.34C769.229 136.34 990.96 105.922 990.96 68.4C990.96 30.8777 769.229 0.459961 495.71 0.459961C222.191 0.459961 0.459961 30.8777 0.459961 68.4C0.459961 105.922 222.191 136.34 495.71 136.34Z" stroke="#73C7E4" stroke-width="0.92" stroke-miterlimit="10"/>
<path d="M504.85 136.34C783.417 136.34 1009.24 105.922 1009.24 68.4C1009.24 30.8777 783.417 0.459961 504.85 0.459961C226.283 0.459961 0.459961 30.8777 0.459961 68.4C0.459961 105.922 226.283 136.34 504.85 136.34Z" stroke="#73C7E4" stroke-width="0.92" stroke-miterlimit="10"/>
<path d="M513.16 136.34C796.316 136.34 1025.86 105.922 1025.86 68.4C1025.86 30.8777 796.316 0.459961 513.16 0.459961C230.004 0.459961 0.459961 30.8777 0.459961 68.4C0.459961 105.922 230.004 136.34 513.16 136.34Z" stroke="#73C7E4" stroke-width="0.92" stroke-miterlimit="10"/>
<path d="M520.64 136.34C807.922 136.34 1040.81 105.922 1040.81 68.4C1040.81 30.8777 807.922 0.459961 520.64 0.459961C233.358 0.459961 0.469971 30.8777 0.469971 68.4C0.469971 105.922 233.358 136.34 520.64 136.34Z" stroke="#73C7E4" stroke-width="0.92" stroke-miterlimit="10"/>
<path d="M524.79 136.34C814.369 136.34 1049.12 105.922 1049.12 68.4C1049.12 30.8777 814.369 0.459961 524.79 0.459961C235.21 0.459961 0.459961 30.8777 0.459961 68.4C0.459961 105.922 235.21 136.34 524.79 136.34Z" stroke="#73C7E4" stroke-width="0.92" stroke-miterlimit="10"/>
<path d="M526.45 136.34C816.946 136.34 1052.44 105.922 1052.44 68.4C1052.44 30.8777 816.946 0.459961 526.45 0.459961C235.954 0.459961 0.459961 30.8777 0.459961 68.4C0.459961 105.922 235.954 136.34 526.45 136.34Z" stroke="#73C7E4" stroke-width="0.92" stroke-miterlimit="10"/>
<path d="M526.45 136.34C816.946 136.34 1052.44 105.922 1052.44 68.4C1052.44 30.8777 816.946 0.459961 526.45 0.459961C235.954 0.459961 0.459961 30.8777 0.459961 68.4C0.459961 105.922 235.954 136.34 526.45 136.34Z" stroke="#73C7E4" stroke-width="0.92" stroke-miterlimit="10"/>
<path d="M526.45 136.34C816.946 136.34 1052.44 105.922 1052.44 68.4C1052.44 30.8777 816.946 0.459961 526.45 0.459961C235.954 0.459961 0.459961 30.8777 0.459961 68.4C0.459961 105.922 235.954 136.34 526.45 136.34Z" stroke="#73C7E4" stroke-width="0.92" stroke-miterlimit="10"/>
<path d="M526.45 136.34C816.946 136.34 1052.44 105.922 1052.44 68.4C1052.44 30.8777 816.946 0.459961 526.45 0.459961C235.954 0.459961 0.459961 30.8777 0.459961 68.4C0.459961 105.922 235.954 136.34 526.45 136.34Z" stroke="#73C7E4" stroke-width="0.92" stroke-miterlimit="10"/>
<path d="M526.45 136.34C816.946 136.34 1052.44 105.922 1052.44 68.4C1052.44 30.8777 816.946 0.459961 526.45 0.459961C235.954 0.459961 0.459961 30.8777 0.459961 68.4C0.459961 105.922 235.954 136.34 526.45 136.34Z" stroke="#73C7E4" stroke-width="0.92" stroke-miterlimit="10"/>
</g>
<defs>
<clipPath id="clip0_189_882">
<rect width="1052.91" height="162.06" fill="white"/>
</clipPath>
</defs>
</svg>
