<svg width="228" height="30" viewBox="0 0 228 30" fill="#0A169A" class="">#0A169A#0A169A
    <g clip-path="url(#clip0_183_7)">
        <path
            d="M5.54627 0.847734L10.7402 12.4575L11.5884 10.5673C12.9848 7.45088 12.9848 3.91302 11.5884 0.809418H5.54627H0V19.8142H5.54627V0.847734Z"
            fill="#0A169A"></path>
        <path
            d="M30.5241 0.809418H24.9778V30.6832H30.5241V0.809418Z"
            fill="#0A169A"></path>
        <path
            d="M18.9095 0.809418L5.5332 30.6832H11.5884L24.9778 0.809418H18.9095Z"
            fill="#0A169A"></path>
        <path
            d="M18.9096 30.6832H24.9648L19.7448 19.0351L18.8965 20.9254C17.5002 24.0418 17.5002 27.5796 18.8965 30.6832H18.9096Z"
            fill="#0A169A"></path>
        <path
            d="M70.6661 12.1765C70.6661 15.9315 68.0169 18.1411 63.4885 18.1411H59.9128V25.2423H56.2849V6.21201H63.5146C68.0038 6.21201 70.6661 8.42157 70.6661 12.1765ZM66.9076 12.1765C66.9076 10.1713 65.7201 8.95799 63.6712 8.95799H59.9128V15.3823H63.6712C65.694 15.3823 66.9076 14.169 66.9076 12.1638V12.1765Z"
            fill="#0A169A"></path>
        <path
            d="M83.7552 20.6444H75.4553L74.1112 25.2423H70.4833L76.5254 6.21201H82.933L88.9491 25.2423H85.0863L83.7421 20.6444H83.7552ZM82.9591 17.8857L79.6444 6.51853H79.5922L76.2514 17.8857H82.9461H82.9591Z"
            fill="#0A169A"></path>
        <path
            d="M106.906 6.21201V25.2423H100.916L94.7172 6.51853H94.665L94.7955 25.2423H91.3242V6.21201H97.3664L103.565 24.9358H103.617L103.461 6.21201H106.906Z"
            fill="#0A169A"></path>
        <path
            d="M111.239 6.21201H117.542C123.662 6.21201 127.29 9.76263 127.29 15.7272C127.29 21.6917 123.662 25.2423 117.542 25.2423H111.239V6.21201ZM117.751 22.4964C121.379 22.4964 123.532 19.9803 123.532 15.7272C123.532 11.4741 121.379 8.95799 117.751 8.95799H114.867V22.4836H117.751V22.4964Z"
            fill="#0A169A"></path>
        <path d="M132.967 21.6151V25.2423H129.104V21.6151H132.967Z" fill="#0A169A"
        ></path>
        <path
            d="M152.385 15.1907V25.2423H148.966V18.4476H148.914C148.914 22.8667 146.448 25.4978 142.245 25.4978C137.782 25.4978 135.016 21.8705 135.016 15.7272C135.016 9.58382 138.357 5.95656 144.007 5.95656C148.601 5.95656 151.655 8.65146 152.229 13.16H148.757C148.288 10.4395 146.5 8.79195 144.007 8.79195C140.693 8.79195 138.748 11.3847 138.748 15.7399C138.748 20.0952 140.666 22.6879 143.903 22.6879C146.904 22.6879 148.705 20.7849 148.875 17.5919H143.694V15.2035H152.385V15.1907Z"
            fill="#0A169A"></path>
        <path
            d="M171.491 25.2423H167.445L163.217 17.528H159.589V25.2423H155.961V6.21201H163.504C168.071 6.21201 170.812 8.24276 170.812 11.6401C170.812 15.3185 168.137 17.4769 163.582 17.4769V17.528C165.709 17.528 167.602 18.5115 168.58 20.1974L171.504 25.2423H171.491ZM163.687 14.9353C165.814 14.9353 167.054 13.7986 167.054 11.8956C167.054 9.99253 165.814 8.95799 163.687 8.95799H159.589V14.9225H163.687V14.9353Z"
            fill="#0A169A"></path>
        <path
            d="M173.057 15.7272C173.057 9.58382 176.424 5.95656 182.1 5.95656C187.777 5.95656 191.092 9.58382 191.092 15.7272C191.092 21.8705 187.725 25.4978 182.1 25.4978C176.476 25.4978 173.057 21.8705 173.057 15.7272ZM187.333 15.7272C187.333 11.3847 185.389 8.77918 182.1 8.77918C178.812 8.77918 176.815 11.3719 176.815 15.7272C176.815 20.0824 178.76 22.6752 182.1 22.6752C185.441 22.6752 187.333 20.0824 187.333 15.7272Z"
            fill="#0A169A"></path>
        <path
            d="M206.034 6.21201H209.453V18.5243C209.453 22.8923 206.621 25.4978 201.832 25.4978C197.043 25.4978 194.211 22.9051 194.211 18.5243V6.21201H197.839V18.7158C197.839 21.2064 199.339 22.6752 201.91 22.6752C204.481 22.6752 206.034 21.2064 206.034 18.7158V6.21201Z"
            fill="#0A169A"></path>
        <path
            d="M227.984 12.1765C227.984 15.9315 225.335 18.1411 220.807 18.1411H217.231V25.2423H213.603V6.21201H220.833C225.322 6.21201 227.984 8.42157 227.984 12.1765ZM224.226 12.1765C224.226 10.1713 223.038 8.95799 220.989 8.95799H217.231V15.3823H220.989C223.012 15.3823 224.226 14.169 224.226 12.1638V12.1765Z"
            fill="#0A169A"></path>
        <path
            d="M36.6576 6.21201H40.6118L45.3098 15.6633L40.6118 25.2423H36.6576L41.3426 15.6633L36.6576 6.21201Z"
            fill="#0A169A"></path>
        <path
            d="M53.9751 6.21201H50.0209L45.3229 15.6633L50.0209 25.2423H53.9751L49.2901 15.6633L53.9751 6.21201Z"
            fill="#0A169A"></path>
    </g>
    <defs>
        <clipPath id="clip0_183_7">
            <rect
                width="227.984"
                height="29.8738"
                fill="#0A169A"
                transform="translate(0 0.809418)"></rect>
        </clipPath>
    </defs>
</svg>